<svg width="140" height="61" viewBox="0 0 140 61" fill="none" xmlns="http://www.w3.org/2000/svg">
<path d="M18.288 45.184L17.64 44.968C17.592 45.112 17.472 45.16 17.28 45.112C17.136 45.112 17.016 45.064 16.92 44.968C16.68 44.584 16.416 44.416 16.128 44.464C15.84 44.56 15.456 44.512 14.976 44.32H14.904C14.76 44.32 14.592 44.344 14.4 44.392C14.256 44.488 14.112 44.512 13.968 44.464L13.464 44.032C13.464 44.08 13.416 44.104 13.32 44.104C13.176 44.104 13.032 44.08 12.888 44.032C12.744 43.984 12.696 43.936 12.744 43.888L11.52 43.24L11.376 43.312L10.584 42.448C10.536 42.496 10.488 42.52 10.44 42.52C10.344 42.52 10.248 42.448 10.152 42.304C10.056 42.208 9.984 42.16 9.936 42.16C9.648 41.92 9.312 41.68 8.928 41.44C8.592 41.248 8.256 41.032 7.92 40.792C7.872 40.744 7.848 40.648 7.848 40.504C7.848 40.408 7.8 40.336 7.704 40.288C7.56 40.144 7.392 40 7.2 39.856C7.008 39.712 6.888 39.544 6.84 39.352L6.552 39.424C6.264 38.896 5.928 38.416 5.544 37.984C5.16 37.552 4.992 36.976 5.04 36.256H4.896L3.96 35.896V35.68C3.912 35.68 3.84 35.704 3.744 35.752C3.648 35.752 3.528 35.728 3.384 35.68C3.048 35.536 2.736 35.368 2.448 35.176C2.16 34.936 1.944 34.648 1.8 34.312C1.752 34.168 1.68 34.096 1.584 34.096C1.536 34.096 1.488 34.072 1.44 34.024C1.344 33.784 1.2 33.568 1.008 33.376C0.816 33.184 0.744 32.944 0.792 32.656L1.008 30.856C1.392 30.424 1.68 30.208 1.872 30.208C2.064 30.208 2.16 30.424 2.16 30.856L1.728 31.576L1.8 32.44C1.896 32.536 2.04 32.584 2.232 32.584C2.424 32.584 2.568 32.56 2.664 32.512L2.592 32.944L2.88 33.448L2.952 33.304L3.384 33.448L3.744 33.952C3.84 33.76 3.936 33.76 4.032 33.952C4.128 34.096 4.176 34.168 4.176 34.168L4.536 33.88C4.488 33.64 4.44 33.4 4.392 33.16C4.344 32.872 4.32 32.608 4.32 32.368C4.32 32.032 4.344 31.792 4.392 31.648C4.536 31.12 4.584 30.712 4.536 30.424C4.536 30.424 4.632 30.256 4.824 29.92C5.016 29.536 5.208 29.296 5.4 29.2L5.976 28.84L6.12 29.056C6.072 29.104 5.976 29.248 5.832 29.488C5.688 29.728 5.568 29.896 5.472 29.992C5.088 30.808 4.944 31.624 5.04 32.44C5.04 32.488 5.04 32.56 5.04 32.656C5.088 32.704 5.088 32.8 5.04 32.944V33.952C5.136 34 5.184 34.192 5.184 34.528C5.184 34.816 5.232 34.936 5.328 34.888C5.568 34.84 5.76 34.912 5.904 35.104C6.096 35.248 6.24 35.176 6.336 34.888L6.84 35.464H7.56C7.512 35.56 7.632 35.656 7.92 35.752C8.256 35.8 8.592 35.824 8.928 35.824C9.264 35.824 9.432 35.824 9.432 35.824L9.864 36.184C9.864 36.136 9.936 36.184 10.08 36.328H10.152C10.296 36.328 10.44 36.28 10.584 36.184C10.776 36.088 10.92 36.04 11.016 36.04C11.256 36.088 11.496 36.184 11.736 36.328C12.024 36.472 12.24 36.472 12.384 36.328L12.96 36.544L13.608 36.184C13.704 36.28 13.896 36.376 14.184 36.472C14.28 36.52 14.424 36.544 14.616 36.544C15.048 36.544 15.36 36.448 15.552 36.256L15.84 36.616C16.512 36.568 17.184 36.568 17.856 36.616C18.576 36.616 19.248 36.616 19.872 36.616C20.4 36.616 20.904 36.616 21.384 36.616C21.912 36.568 22.416 36.52 22.896 36.472C23.04 36.472 23.16 36.472 23.256 36.472C23.352 36.424 23.424 36.4 23.472 36.4C23.808 36.4 24.192 36.304 24.624 36.112C25.056 35.92 25.416 35.824 25.704 35.824C25.8 35.824 26.016 35.752 26.352 35.608C26.736 35.416 26.856 35.536 26.712 35.968L25.992 36.328L25.776 36.256C25.728 36.304 25.512 36.424 25.128 36.616C24.792 36.76 24.6 36.784 24.552 36.688L23.04 36.904C22.848 36.952 22.56 37 22.176 37.048C21.792 37.096 21.6 37.096 21.6 37.048L20.952 37.192C20.952 37.144 20.904 37.12 20.808 37.12C20.616 37.12 20.328 37.192 19.944 37.336C19.608 37.48 19.416 37.528 19.368 37.48C19.32 37.384 19.08 37.384 18.648 37.48C18.264 37.528 17.88 37.552 17.496 37.552C16.92 37.552 16.608 37.456 16.56 37.264L15.984 37.48C16.08 37.384 16.032 37.336 15.84 37.336C15.696 37.288 15.576 37.288 15.48 37.336L15.408 37.696C15.312 37.744 15.216 37.744 15.12 37.696C15.024 37.648 14.928 37.6 14.832 37.552C14.544 37.408 14.088 37.336 13.464 37.336C12.84 37.336 12.24 37.312 11.664 37.264C11.088 37.216 10.728 37.096 10.584 36.904L10.008 37.192C9.816 37.192 9.528 37.168 9.144 37.12C8.808 37.024 8.544 36.952 8.352 36.904C8.016 36.808 7.632 36.712 7.2 36.616C6.816 36.52 6.432 36.496 6.048 36.544L6.408 37.12V37.264C6.744 37.456 7.008 37.768 7.2 38.2C7.44 38.584 7.8 38.728 8.28 38.632L8.496 39.568L9.072 39.928C9.12 39.88 9.168 39.856 9.216 39.856C9.36 39.856 9.6 39.952 9.936 40.144C10.272 40.336 10.536 40.48 10.728 40.576L10.944 40.432L11.304 41.08C11.352 41.032 11.4 41.008 11.448 41.008C11.592 41.008 11.76 41.056 11.952 41.152C12.144 41.248 12.264 41.272 12.312 41.224L12.816 41.368L13.32 41.224C13.512 41.512 13.632 41.728 13.68 41.872C13.728 42.016 13.8 42.112 13.896 42.16C14.136 42.256 14.136 42.328 13.896 42.376C13.704 42.424 13.608 42.496 13.608 42.592L13.68 42.736H14.328C14.328 42.592 14.496 42.472 14.832 42.376C15.216 42.328 15.6 42.304 15.984 42.304C16.56 42.304 16.896 42.352 16.992 42.448C17.184 42.544 17.232 42.544 17.136 42.448L17.784 42.376L18.216 42.736C18.312 42.592 18.408 42.52 18.504 42.52C18.648 42.52 18.768 42.544 18.864 42.592C19.008 42.688 19.08 42.736 19.08 42.736C19.176 42.784 19.272 42.688 19.368 42.448C19.512 42.256 19.68 42.184 19.872 42.232L20.16 42.304C20.496 42.304 20.832 42.256 21.168 42.16C21.552 42.064 21.768 42.16 21.816 42.448L22.32 42.088L22.68 42.16L22.536 42.736C22.536 42.928 22.56 43.024 22.608 43.024C22.704 43.024 22.824 42.856 22.968 42.52C23.16 42.232 23.256 42.208 23.256 42.448L23.76 41.872C23.904 41.968 24.096 42.016 24.336 42.016C24.72 42.016 25.08 41.872 25.416 41.584C25.752 41.344 26.16 41.176 26.64 41.08L26.712 41.224C26.808 41.176 26.904 41.128 27 41.08C27.144 41.08 27.216 41.128 27.216 41.224L28.008 41.152C28.2 41.008 28.512 40.84 28.944 40.648C29.424 40.456 29.76 40.312 29.952 40.216L30.024 39.928C30.024 39.928 30.144 39.928 30.384 39.928C30.672 39.88 30.84 39.832 30.888 39.784V39.712C30.888 39.616 30.888 39.472 30.888 39.28C30.888 39.04 30.984 38.944 31.176 38.992L31.536 39.208C31.968 39.064 32.256 38.872 32.4 38.632C32.592 38.344 32.88 38.08 33.264 37.84C33.408 37.744 33.528 37.624 33.624 37.48C33.768 37.336 33.936 37.24 34.128 37.192C34.176 37.192 34.248 37.264 34.344 37.408C34.488 37.552 34.632 37.528 34.776 37.336L34.848 36.616L35.496 36.4L35.856 35.896C35.856 35.896 35.856 35.92 35.856 35.968C35.904 35.968 35.952 35.968 36 35.968C36.192 35.968 36.408 35.776 36.648 35.392C36.888 35.008 36.936 34.744 36.792 34.6L37.512 33.808C37.464 33.52 37.56 33.16 37.8 32.728C38.088 32.296 38.232 31.768 38.232 31.144C38.232 30.76 38.112 30.304 37.872 29.776C37.632 29.248 37.152 28.672 36.432 28.048L36.072 27.832C35.496 27.448 34.968 27.16 34.488 26.968C34.056 26.728 33.48 26.488 32.76 26.248C32.76 26.248 32.688 26.2 32.544 26.104L30.528 25.528C30.336 25.384 29.904 25.264 29.232 25.168C28.56 25.072 28.104 25 27.864 24.952C27.768 24.904 27.648 24.832 27.504 24.736C27.408 24.64 27.312 24.664 27.216 24.808L26.568 24.448C26.472 24.496 26.352 24.52 26.208 24.52C26.112 24.52 26.016 24.496 25.92 24.448C25.872 24.4 25.728 24.376 25.488 24.376C25.152 24.328 24.6 24.184 23.832 23.944C23.112 23.704 22.704 23.632 22.608 23.728L20.736 22.792L20.52 22.864L19.872 22.504C20.016 22.696 19.92 22.744 19.584 22.648C19.248 22.504 18.864 22.336 18.432 22.144C18 21.904 17.664 21.76 17.424 21.712C16.608 21.376 15.864 20.896 15.192 20.272C14.568 19.648 14.256 18.88 14.256 17.968C14.256 17.152 14.304 16.576 14.4 16.24C14.496 15.904 14.616 15.616 14.76 15.376C14.952 15.136 15.12 14.776 15.264 14.296C15.36 14.152 15.48 14.008 15.624 13.864C15.816 13.672 15.936 13.48 15.984 13.288L16.56 12.928C16.608 12.688 16.728 12.448 16.92 12.208C17.16 11.968 17.376 11.8 17.568 11.704C18.192 11.416 18.888 10.936 19.656 10.264C20.472 9.544 21.264 9.016 22.032 8.68C22.224 8.584 22.392 8.512 22.536 8.464C22.68 8.368 22.848 8.296 23.04 8.248L23.112 8.392C23.544 8.248 24.264 8.032 25.272 7.744C26.28 7.408 27.384 7.072 28.584 6.736C29.832 6.4 30.984 6.112 32.04 5.872C33.144 5.632 34.008 5.512 34.632 5.512C35.064 5.512 35.304 5.584 35.352 5.728L36.216 5.224C36.264 5.272 36.36 5.32 36.504 5.368C36.648 5.368 36.744 5.344 36.792 5.296L37.512 5.512C37.704 5.416 37.848 5.368 37.944 5.368C38.232 5.368 38.544 5.464 38.88 5.656C39.264 5.8 39.552 5.848 39.744 5.8C39.984 5.704 40.152 5.68 40.248 5.728C40.392 5.728 40.536 5.728 40.68 5.728H40.968C41.112 5.728 41.256 5.752 41.4 5.8C41.592 5.8 41.784 5.896 41.976 6.088L42.336 6.16C42.48 6.304 42.552 6.472 42.552 6.664C42.648 6.856 42.936 6.976 43.416 7.024C43.896 7.072 44.208 7.168 44.352 7.312C44.736 7.6 44.952 8.08 45 8.752C45.096 9.376 45.144 9.952 45.144 10.48C45.096 11.008 44.88 11.656 44.496 12.424C44.16 13.144 43.728 13.72 43.2 14.152C42.96 14.344 42.6 14.56 42.12 14.8C41.64 14.992 41.28 15.16 41.04 15.304C40.512 15.64 39.936 15.808 39.312 15.808C38.4 15.808 37.944 15.616 37.944 15.232C37.944 15.088 38.112 14.944 38.448 14.8C38.688 14.704 38.904 14.608 39.096 14.512C39.336 14.368 39.552 14.2 39.744 14.008C39.936 13.912 40.056 13.864 40.104 13.864C40.2 13.816 40.272 13.768 40.32 13.72C40.416 13.672 40.488 13.624 40.536 13.576C40.584 13.48 40.68 13.384 40.824 13.288C41.112 13.048 41.472 12.664 41.904 12.136C42.384 11.56 42.72 11.128 42.912 10.84C42.96 10.6 43.056 10.288 43.2 9.904C43.392 9.472 43.488 9.088 43.488 8.752C43.488 8.464 43.416 8.248 43.272 8.104C43.224 8.104 43.2 8.08 43.2 8.032L43.128 7.888C42.744 7.072 41.976 6.616 40.824 6.52C39.72 6.376 38.784 6.304 38.016 6.304C38.016 6.304 37.968 6.28 37.872 6.232C37.776 6.184 37.728 6.208 37.728 6.304L36.144 6.448L36 6.304L34.488 6.592L34.344 6.52L32.76 6.952C32.808 6.856 32.784 6.832 32.688 6.88C32.592 6.88 32.544 6.88 32.544 6.88L30.96 7.312L30.888 7.24L30.168 7.672C30.168 7.624 30.144 7.576 30.096 7.528C30.048 7.48 30.024 7.456 30.024 7.456C29.976 7.504 29.928 7.576 29.88 7.672C29.832 7.72 29.76 7.768 29.664 7.816L29.52 7.744L28.512 8.104C28.512 8.152 28.416 8.176 28.224 8.176C26.928 8.752 25.512 9.424 23.976 10.192C22.488 10.912 21.336 11.944 20.52 13.288L20.376 13.144L19.728 13.72C19.68 13.768 19.608 13.84 19.512 13.936C19.464 14.032 19.392 14.2 19.296 14.44C19.152 14.824 18.936 15.28 18.648 15.808C18.408 16.336 18.288 16.84 18.288 17.32C18.288 17.8 18.384 18.256 18.576 18.688C18.768 19.072 18.912 19.168 19.008 18.976L19.656 19.408L19.872 20.2L20.016 20.128L20.952 20.848H21.096L22.248 21.784L23.112 22.288H23.688L24.552 22.576C24.648 22.624 24.72 22.696 24.768 22.792C24.864 22.84 24.984 22.792 25.128 22.648L25.848 23.152C25.896 23.104 25.968 23.08 26.064 23.08C26.16 23.08 26.256 23.128 26.352 23.224C26.448 23.272 26.52 23.32 26.568 23.368L26.712 23.296L29.232 24.304C29.328 24.256 29.448 24.232 29.592 24.232C29.832 24.232 30.024 24.28 30.168 24.376C30.36 24.424 30.552 24.472 30.744 24.52C30.84 24.568 30.96 24.64 31.104 24.736C31.296 24.832 31.392 24.904 31.392 24.952C31.488 25 31.584 25.024 31.68 25.024C31.824 25.024 31.944 25.024 32.04 25.024L32.688 25.24L33.336 25.6L33.984 25.672C33.984 25.672 34.176 25.768 34.56 25.96C34.992 26.104 35.424 26.248 35.856 26.392C36.336 26.536 36.6 26.632 36.648 26.68L37.08 27.112L37.152 27.04L37.656 27.328C38.184 27.664 38.712 28.312 39.24 29.272C39.816 30.184 40.104 31.192 40.104 32.296C40.104 33.016 39.984 33.736 39.744 34.456C39.552 35.128 39.312 35.68 39.024 36.112C38.304 37.072 37.512 37.936 36.648 38.704C35.832 39.472 35.088 40.12 34.416 40.648C34.176 40.792 34.008 40.912 33.912 41.008C33.816 41.104 33.672 41.152 33.48 41.152C33.336 41.2 33.216 41.272 33.12 41.368C32.448 41.752 31.704 42.088 30.888 42.376C30.072 42.712 29.352 43.024 28.728 43.312C28.44 43.408 28.2 43.456 28.008 43.456C27.816 43.504 27.624 43.552 27.432 43.6C27.384 43.6 27.288 43.624 27.144 43.672C27.048 43.768 27 43.792 27 43.744L26.496 44.104C26.448 44.056 26.376 44.032 26.28 44.032C26.088 44.032 25.872 44.128 25.632 44.32C25.44 44.512 25.248 44.584 25.056 44.536H24.984C24.84 44.536 24.648 44.56 24.408 44.608C24.216 44.704 24.072 44.704 23.976 44.608L23.04 44.968L22.896 44.608C22.848 44.608 22.776 44.656 22.68 44.752C22.632 44.896 22.56 44.968 22.464 44.968C22.464 44.968 22.368 44.92 22.176 44.824C21.984 44.728 21.84 44.776 21.744 44.968L20.952 45.184C20.904 44.992 20.76 44.896 20.52 44.896C20.328 44.896 20.16 44.968 20.016 45.112L19.44 44.824V44.896L18.864 44.824L18.288 45.184ZM24.1875 60.448C23.4675 60.448 22.8435 60.376 22.3155 60.232C21.9795 60.136 21.6435 60.016 21.3075 59.872C20.9715 59.728 20.6115 59.56 20.2275 59.368L20.0835 59.296C19.8915 59.2 19.6755 59.056 19.4355 58.864C19.1955 58.72 18.9555 58.6 18.7155 58.504C18.5235 58.456 18.2595 58.312 17.9235 58.072C17.6835 57.88 17.5395 57.688 17.4915 57.496C17.3955 57.304 17.4195 57.184 17.5635 57.136C17.6115 57.136 17.6835 57.16 17.7795 57.208C17.8755 57.304 17.9715 57.376 18.0675 57.424C18.1635 57.472 18.2835 57.544 18.4275 57.64C18.5235 57.736 18.6195 57.808 18.7155 57.856C18.9555 57.952 19.1715 58.024 19.3635 58.072C19.5075 58.168 19.6755 58.264 19.8675 58.36C20.2995 58.552 20.6115 58.672 20.8035 58.72C20.9955 58.768 21.2835 58.816 21.6675 58.864L22.6035 58.936C24.2835 59.032 25.7235 58.816 26.9235 58.288C28.1235 57.76 29.2035 57.064 30.1635 56.2C31.0755 55.384 31.9155 54.544 32.6835 53.68C32.8275 53.296 32.9955 52.936 33.1875 52.6C33.3315 52.264 33.4995 52.024 33.6915 51.88C33.7395 51.832 33.7875 51.856 33.8355 51.952C33.8835 52.096 33.9315 52.144 33.9795 52.096C34.0755 51.952 34.1475 51.712 34.1955 51.376C34.2435 51.088 34.3155 50.872 34.4115 50.728C34.5075 50.632 34.6035 50.656 34.6995 50.8C34.7475 50.944 34.7955 50.992 34.8435 50.944C34.9395 50.848 34.9875 50.656 34.9875 50.368C34.9875 50.128 35.0115 49.96 35.0595 49.864C35.5875 49.192 36.0435 48.568 36.4275 47.992C36.8115 47.416 37.2435 46.744 37.7235 45.976C37.9635 45.592 38.2755 45.16 38.6595 44.68C38.9955 44.2 39.3315 43.72 39.6675 43.24C40.0515 42.424 40.4835 41.752 40.9635 41.224V41.08C40.9635 40.888 41.0115 40.696 41.1075 40.504C41.2035 40.312 41.2755 40.144 41.3235 40C41.4195 39.616 41.5155 39.376 41.6115 39.28C41.7075 39.184 41.7795 38.92 41.8275 38.488H41.8995C41.6595 37.912 41.6115 37.408 41.7555 36.976C41.8515 36.784 42.0195 36.568 42.2595 36.328C42.5475 36.04 42.7635 35.8 42.9075 35.608C43.0035 35.368 43.0275 35.224 42.9795 35.176V34.96C42.9795 34.624 43.0515 34.336 43.1955 34.096C43.3875 33.856 43.5555 33.568 43.6995 33.232C43.7475 33.04 43.8435 32.944 43.9875 32.944H44.2035C44.2995 32.944 44.3475 32.872 44.3475 32.728C44.3475 32.632 44.3235 32.512 44.2755 32.368C44.2755 32.176 44.2515 31.984 44.2035 31.792C44.2515 31.456 44.3955 31.24 44.6355 31.144H44.7795C44.8755 30.52 44.9715 30.088 45.0675 29.848C45.1635 29.56 45.2835 29.32 45.4275 29.128L46.0755 28.264L46.2915 27.472C46.3875 27.28 46.4835 27.136 46.5795 27.04C46.6755 26.896 46.7715 26.776 46.8675 26.68V26.608C46.9155 26.464 46.9875 26.344 47.0835 26.248C47.1795 26.104 47.2515 25.984 47.2995 25.888L47.5875 25.312C47.5875 25.216 47.6835 25 47.8755 24.664C48.0675 24.328 48.1875 24.136 48.2355 24.088C48.5235 23.56 48.7395 23.2 48.8835 23.008C49.0755 22.816 49.3635 22.48 49.7475 22C49.8435 21.808 49.9875 21.568 50.1795 21.28C50.4195 20.944 50.6355 20.632 50.8275 20.344L49.6755 20.56C49.5795 20.608 49.5315 20.656 49.5315 20.704C49.5315 20.704 49.4835 20.704 49.3875 20.704C49.2915 20.752 49.1475 20.8 48.9555 20.848C48.7635 20.896 48.6195 20.92 48.5235 20.92C48.3795 20.92 48.1875 20.92 47.9475 20.92C47.7075 20.872 47.4675 20.848 47.2275 20.848C47.1795 20.848 47.1315 20.8 47.0835 20.704C47.0355 20.608 46.9635 20.584 46.8675 20.632C46.8195 20.632 46.7235 20.68 46.5795 20.776C46.4355 20.872 46.3155 20.944 46.2195 20.992C46.1715 20.992 46.1235 20.992 46.0755 20.992C46.0275 20.944 45.9795 20.944 45.9315 20.992C45.8835 20.992 45.8115 21.016 45.7155 21.064C45.6675 21.112 45.5955 21.16 45.4995 21.208C45.2595 21.256 44.9955 21.328 44.7075 21.424C44.4195 21.472 44.1075 21.568 43.7715 21.712H43.6275C43.4835 21.712 43.4115 21.64 43.4115 21.496C43.4115 21.208 43.5555 21.04 43.8435 20.992C44.1795 20.896 44.5875 20.752 45.0675 20.56C45.5475 20.368 46.0275 20.224 46.5075 20.128C46.6515 20.128 46.7715 20.104 46.8675 20.056C47.0115 20.008 47.1315 19.984 47.2275 19.984C47.3715 19.984 47.4915 19.96 47.5875 19.912C47.7315 19.864 47.8755 19.84 48.0195 19.84C48.1155 19.744 48.1875 19.696 48.2355 19.696C48.6195 19.696 49.0035 19.6 49.3875 19.408C49.7715 19.168 50.2035 18.928 50.6835 18.688C50.9715 18.592 51.2355 18.4 51.4755 18.112C51.7635 17.824 51.9555 17.656 52.0515 17.608C52.1475 17.512 52.2195 17.416 52.2675 17.32C52.3635 17.224 52.5075 17.128 52.6995 17.032C52.8915 16.744 53.1315 16.432 53.4195 16.096C53.7555 15.76 54.1875 15.568 54.7155 15.52C54.9075 15.52 55.2435 15.568 55.7235 15.664C56.2515 15.712 56.5395 15.736 56.5875 15.736C56.7795 15.784 56.8755 15.952 56.8755 16.24C56.8755 16.72 56.7075 17.056 56.3715 17.248C56.2755 17.296 56.2275 17.44 56.2275 17.68C56.2755 17.872 56.2515 18.016 56.1555 18.112L55.0755 18.688C54.7875 18.832 54.5715 18.976 54.4275 19.12C54.3315 19.216 54.1155 19.312 53.7795 19.408C53.6835 19.408 53.5395 19.432 53.3475 19.48C53.2035 19.528 53.0595 19.576 52.9155 19.624C52.7715 19.912 52.6035 20.152 52.4115 20.344C52.2675 20.488 52.0755 20.776 51.8355 21.208C51.3555 21.976 51.1155 22.432 51.1155 22.576C51.1155 22.672 51.0435 22.84 50.8995 23.08C50.8515 23.128 50.8035 23.248 50.7555 23.44C50.7075 23.584 50.6595 23.704 50.6115 23.8L49.6035 25.312C49.6035 25.36 49.5075 25.48 49.3155 25.672C49.1235 25.816 49.0035 25.936 48.9555 26.032C48.9075 26.128 48.8835 26.2 48.8835 26.248C48.9315 26.296 48.9555 26.344 48.9555 26.392C48.9555 26.536 48.8835 26.632 48.7395 26.68C48.6435 26.728 48.5955 26.776 48.5955 26.824C48.5475 26.872 48.4995 26.896 48.4515 26.896C48.4515 26.848 48.4035 26.872 48.3075 26.968C48.2595 27.016 48.2115 27.16 48.1635 27.4C48.1635 27.592 48.1395 27.712 48.0915 27.76C47.8035 28.24 47.6355 28.72 47.5875 29.2C47.5395 29.632 47.3475 30.112 47.0115 30.64C46.7235 31.264 46.6515 31.576 46.7955 31.576C46.9395 31.576 47.0115 31.576 47.0115 31.576C47.6835 30.904 48.6435 29.92 49.8915 28.624C51.1875 27.28 52.5075 26.008 53.8515 24.808C53.9955 24.664 54.1395 24.472 54.2835 24.232C54.4275 23.992 54.5715 23.824 54.7155 23.728C55.0515 23.392 55.4115 23.128 55.7955 22.936C56.1795 22.696 56.5395 22.432 56.8755 22.144C57.1155 21.952 57.3315 21.832 57.5235 21.784C57.7635 21.736 57.9795 21.64 58.1715 21.496C58.2675 21.448 58.2915 21.4 58.2435 21.352C58.1955 21.256 58.2195 21.184 58.3155 21.136C58.8435 20.848 59.1315 20.68 59.1795 20.632C59.2275 20.584 59.4195 20.512 59.7555 20.416C60.2835 20.224 60.8835 20.128 61.5555 20.128C61.9875 20.128 62.2515 20.152 62.3475 20.2C62.5875 20.344 62.8515 20.464 63.1395 20.56C63.4275 20.656 63.5715 20.944 63.5715 21.424C63.5715 21.664 63.5955 21.808 63.6435 21.856C63.6915 21.856 63.7155 22.024 63.7155 22.36C63.7155 22.6 63.6675 22.984 63.5715 23.512C63.5235 24.04 63.4755 24.448 63.4275 24.736L63.1395 26.536C63.0915 26.68 63.0915 26.824 63.1395 26.968C63.1875 27.112 63.1875 27.256 63.1395 27.4C63.0915 27.448 63.0195 27.52 62.9235 27.616C62.8275 27.712 62.7555 27.808 62.7075 27.904C62.3715 27.952 62.1315 28.12 61.9875 28.408C61.8915 28.648 62.0115 28.744 62.3475 28.696C62.2995 28.744 62.2035 28.816 62.0595 28.912C61.9635 29.008 61.8915 29.104 61.8435 29.2C61.7955 29.248 61.8195 29.296 61.9155 29.344C62.0115 29.344 61.9635 29.512 61.7715 29.848C61.6275 30.088 61.4835 30.4 61.3395 30.784C61.1955 31.168 61.0515 31.48 60.9075 31.72C60.7635 31.912 60.6195 32.032 60.4755 32.08C60.3795 32.128 60.2595 32.248 60.1155 32.44C60.0675 32.536 60.0435 32.632 60.0435 32.728C60.0435 32.824 59.9955 32.92 59.8995 33.016C59.8515 33.112 59.7555 33.184 59.6115 33.232C59.5155 33.28 59.4195 33.352 59.3235 33.448C57.7875 35.272 55.9155 36.928 53.7075 38.416C51.5475 39.904 49.2435 40.84 46.7955 41.224C46.6515 41.224 46.5075 41.224 46.3635 41.224C46.2675 41.272 46.1715 41.296 46.0755 41.296C45.3075 41.296 44.7075 41.104 44.2755 40.72C43.8915 40.336 43.5315 39.928 43.1955 39.496C43.0995 39.832 43.0035 40.144 42.9075 40.432C42.8115 40.768 42.7155 41.104 42.6195 41.44C42.5235 41.776 42.4515 42.16 42.4035 42.592C42.4035 43.024 42.2835 43.288 42.0435 43.384C41.8995 43.432 41.7795 43.36 41.6835 43.168C41.5875 42.976 41.5395 43.144 41.5395 43.672C41.6355 43.72 41.6595 43.816 41.6115 43.96C41.5155 44.104 41.4675 44.224 41.4675 44.32C41.5155 44.416 41.5395 44.56 41.5395 44.752C41.5395 44.992 41.4675 45.208 41.3235 45.4C41.1315 45.592 40.9875 45.808 40.8915 46.048C40.8435 46.192 40.7475 46.264 40.6035 46.264C40.5555 46.264 40.4835 46.24 40.3875 46.192C40.2915 46.144 40.2195 46.12 40.1715 46.12C40.1235 46.12 40.0995 46.168 40.0995 46.264C40.0995 46.36 40.1715 46.696 40.3155 47.272C40.3155 47.56 40.1715 47.704 39.8835 47.704H39.6675C39.6195 48.232 39.5475 48.616 39.4515 48.856C39.3555 49.144 39.2355 49.36 39.0915 49.504L38.5875 49.864C38.1075 50.248 37.7715 50.8 37.5795 51.52C37.5315 51.664 37.4355 51.784 37.2915 51.88C37.0995 51.976 36.9555 52.096 36.8595 52.24C36.8595 52.288 36.8595 52.312 36.8595 52.312C36.8115 52.312 36.7875 52.336 36.7875 52.384C36.7875 52.96 36.5475 53.536 36.0675 54.112C35.5395 54.688 35.0115 55.192 34.4835 55.624C34.3875 55.816 34.2675 56.008 34.1235 56.2C33.9795 56.392 33.8115 56.56 33.6195 56.704C33.3795 56.944 33.1155 57.088 32.8275 57.136C32.4915 57.184 32.1795 57.328 31.8915 57.568C31.7955 57.616 31.7715 57.736 31.8195 57.928C31.8675 58.168 31.8435 58.312 31.7475 58.36C30.6435 59.032 29.3955 59.536 28.0035 59.872C26.6115 60.256 25.3395 60.448 24.1875 60.448ZM47.0115 39.856C47.4435 39.856 48.0675 39.76 48.8835 39.568C49.6995 39.328 50.4435 39.016 51.1155 38.632C51.3555 38.536 51.5715 38.416 51.7635 38.272C52.0035 38.08 52.2195 37.888 52.4115 37.696C52.6035 37.504 52.7235 37.312 52.7715 37.12C52.9635 36.832 53.2515 36.52 53.6355 36.184L53.9955 35.968C54.1875 35.776 54.3795 35.44 54.5715 34.96H54.7155C54.9075 34.912 55.0275 34.816 55.0755 34.672L55.4355 34.528C55.4355 34.384 55.4835 34.264 55.5795 34.168C55.6755 33.976 55.8435 33.76 56.0835 33.52C56.3235 33.232 56.4435 32.992 56.4435 32.8C56.4435 32.752 56.3955 32.68 56.2995 32.584C56.3475 32.488 56.4435 32.32 56.5875 32.08C56.7795 31.792 56.8995 31.6 56.9475 31.504L57.3795 31.432L57.5955 31V30.856C58.2195 30.856 58.4835 30.616 58.3875 30.136L58.8915 28.768C58.9875 28.384 59.1315 28.12 59.3235 27.976C59.3235 27.784 59.3475 27.664 59.3955 27.616C59.4435 27.568 59.4915 27.472 59.5395 27.328C59.6835 26.944 59.8275 26.44 59.9715 25.816C60.1635 25.192 60.2595 24.88 60.2595 24.88L60.0435 24.448C60.0435 24.352 59.9715 24.208 59.8275 24.016C59.7315 23.824 59.7075 23.656 59.7555 23.512C59.8515 23.176 60.0195 22.96 60.2595 22.864C60.5475 22.768 60.5955 22.696 60.4035 22.648H60.3315C60.1875 22.648 60.0195 22.672 59.8275 22.72C59.6835 22.768 59.4915 22.84 59.2515 22.936C58.9635 23.032 58.6995 23.056 58.4595 23.008C58.2195 22.96 58.0275 22.984 57.8835 23.08C57.4035 23.224 56.8995 23.464 56.3715 23.8C55.8435 24.088 55.2675 24.496 54.6435 25.024C54.5955 25.072 54.5235 25.168 54.4275 25.312C54.3315 25.456 54.2355 25.576 54.1395 25.672C54.0915 25.72 53.9955 25.744 53.8515 25.744C53.7555 25.744 53.6595 25.792 53.5635 25.888C53.5155 25.936 53.5155 26.008 53.5635 26.104C53.6115 26.2 53.6115 26.296 53.5635 26.392C53.4675 26.44 53.3715 26.488 53.2755 26.536C53.1795 26.584 53.0835 26.656 52.9875 26.752L52.7715 27.112C51.9555 28.024 50.9475 29.032 49.7475 30.136C48.5955 31.24 47.6115 32.32 46.7955 33.376L57.1635 29.416C57.4515 29.272 57.7155 29.2 57.9555 29.2C58.0515 29.152 58.1715 29.2 58.3155 29.344C58.3635 29.44 58.3155 29.536 58.1715 29.632C58.0755 29.728 58.0035 29.752 57.9555 29.704L57.5955 29.632C57.5475 29.68 57.4515 29.752 57.3075 29.848C57.2115 29.944 57.1155 29.992 57.0195 29.992L56.6595 30.136C56.6115 30.184 56.5155 30.208 56.3715 30.208C56.2275 30.208 56.1315 30.232 56.0835 30.28C55.9875 30.328 55.9155 30.376 55.8675 30.424C55.8195 30.424 55.7475 30.472 55.6515 30.568C54.5475 31.048 53.3475 31.6 52.0515 32.224C50.7555 32.8 49.5555 33.376 48.4515 33.952C47.0595 34.72 46.0995 35.464 45.5715 36.184C45.0435 36.856 44.7795 37.456 44.7795 37.984C44.7795 38.416 44.8995 38.8 45.1395 39.136C45.3795 39.424 45.6675 39.616 46.0035 39.712C46.3395 39.808 46.6755 39.856 47.0115 39.856ZM68.3094 40.648C67.2534 40.648 66.3174 40.36 65.5014 39.784C64.7334 39.16 64.3494 38.104 64.3494 36.616C64.3494 36.088 64.4454 35.344 64.6374 34.384C64.8294 33.424 65.1414 32.416 65.5734 31.36C65.8134 30.784 66.0774 30.232 66.3654 29.704C66.7014 29.176 67.0134 28.672 67.3014 28.192C67.3494 28.144 67.4934 28.192 67.7334 28.336C68.0214 28.48 68.1894 28.528 68.2374 28.48C68.2854 28.384 68.2134 28.288 68.0214 28.192C67.8774 28.048 67.8294 27.952 67.8774 27.904C67.9734 27.808 68.0454 27.76 68.0934 27.76C68.1894 27.712 68.2614 27.64 68.3094 27.544C68.3574 27.448 68.3814 27.352 68.3814 27.256C68.3814 27.112 68.3094 26.992 68.1654 26.896C68.0694 26.8 68.1174 26.656 68.3094 26.464C68.5494 26.128 68.8134 25.816 69.1014 25.528C69.4374 25.192 69.7254 24.904 69.9654 24.664C70.0614 24.568 70.1814 24.424 70.3254 24.232C70.4694 23.992 70.5654 23.848 70.6134 23.8L70.7574 23.656C70.8054 23.608 70.8534 23.56 70.9014 23.512C70.9014 23.464 70.9014 23.44 70.9014 23.44C70.9494 23.44 70.9734 23.416 70.9734 23.368C70.9734 23.224 70.8294 23.08 70.5414 22.936C70.2534 22.792 70.1094 22.696 70.1094 22.648C70.1094 22.6 70.0854 22.552 70.0374 22.504C69.9894 22.456 69.9414 22.384 69.8934 22.288C69.9414 22.288 69.9894 22.24 70.0374 22.144C70.1334 22 70.2054 21.928 70.2534 21.928C70.3014 21.928 70.3974 21.976 70.5414 22.072C70.6854 22.12 70.7814 22.144 70.8294 22.144C70.8774 22.144 70.9014 22.12 70.9014 22.072C70.9494 22.024 70.9974 22 71.0454 22C71.1414 22 71.3574 22.072 71.6934 22.216C72.0294 22.312 72.2214 22.36 72.2694 22.36C72.3174 22.36 72.4614 22.24 72.7014 22C72.9414 21.76 73.0854 21.616 73.1334 21.568C73.2294 21.472 73.3014 21.376 73.3494 21.28C73.3974 21.136 73.5174 20.968 73.7094 20.776H73.7814C73.8294 20.728 73.8534 20.68 73.8534 20.632C73.8534 20.584 73.8534 20.56 73.8534 20.56C73.9494 20.464 74.0214 20.392 74.0694 20.344C74.1654 20.248 74.2374 20.176 74.2854 20.128C74.3334 20.08 74.3574 20.056 74.3574 20.056C74.4054 20.056 74.4294 20.056 74.4294 20.056C74.4774 19.96 74.5254 19.888 74.5734 19.84C74.6694 19.792 74.7414 19.744 74.7894 19.696L74.9334 19.408C75.0294 19.312 75.3654 19.096 75.9414 18.76C76.5174 18.424 76.9494 18.256 77.2374 18.256H77.5974C77.5974 18.256 77.5974 18.28 77.5974 18.328C77.5974 18.328 77.6214 18.328 77.6694 18.328C77.7174 18.328 77.7654 18.328 77.8134 18.328C77.8614 18.28 77.9094 18.256 77.9574 18.256C77.9574 18.256 78.0294 18.328 78.1734 18.472C78.2214 18.52 78.2694 18.544 78.3174 18.544C78.3654 18.496 78.4134 18.472 78.4614 18.472C78.5094 18.52 78.5334 18.568 78.5334 18.616C78.5334 18.664 78.5574 18.688 78.6054 18.688C78.7014 18.688 78.7254 18.688 78.6774 18.688C78.6774 18.64 78.7014 18.616 78.7494 18.616C78.7974 18.616 78.8214 18.664 78.8214 18.76C78.8214 18.856 78.8454 18.952 78.8934 19.048C78.8454 19.192 78.7974 19.36 78.7494 19.552C78.7494 19.696 78.7254 19.816 78.6774 19.912C78.2454 20.488 77.9094 20.776 77.6694 20.776C77.6694 20.824 77.5974 20.92 77.4534 21.064C77.3094 21.064 77.1414 21.112 76.9494 21.208C76.7574 21.304 76.5654 21.4 76.3734 21.496V21.712C76.3734 21.904 76.3014 22 76.1574 22C76.0614 21.952 75.9654 22.024 75.8694 22.216V22.288C75.9654 22.432 76.1334 22.504 76.3734 22.504L76.8774 22.576C76.9734 22.576 77.0214 22.552 77.0214 22.504C77.0694 22.456 77.1174 22.432 77.1654 22.432C77.2134 22.432 77.2374 22.456 77.2374 22.504C77.2374 22.504 77.2614 22.504 77.3094 22.504C77.4054 22.504 77.4774 22.48 77.5254 22.432C77.5734 22.384 77.6214 22.36 77.6694 22.36L78.3174 22.432C78.1734 22.192 78.1014 22 78.1014 21.856C78.1014 21.616 78.3174 21.472 78.7494 21.424C79.4214 21.424 79.9974 21.664 80.4774 22.144C80.5734 22.096 80.6934 22.096 80.8374 22.144C80.9814 22.192 81.1254 22.192 81.2694 22.144L81.6294 21.928L81.7014 22C81.8934 21.904 82.0134 21.856 82.0614 21.856C82.1574 21.856 82.1814 21.88 82.1334 21.928C82.1334 21.928 82.1574 21.928 82.2054 21.928C82.2054 21.928 82.2534 21.88 82.3494 21.784C82.3974 21.784 82.4454 21.808 82.4934 21.856C82.5894 21.856 82.6614 21.832 82.7094 21.784L82.9254 21.568H83.7894L83.8614 21.496C83.9574 21.448 84.0774 21.4 84.2214 21.352C84.4134 21.256 84.5814 21.208 84.7254 21.208C84.7254 21.16 84.7734 21.136 84.8694 21.136C84.9654 21.088 85.0374 21.064 85.0854 21.064H85.2294C85.4694 21.064 85.5894 21.136 85.5894 21.28C85.5894 21.424 85.5174 21.544 85.3734 21.64C85.3254 21.688 85.2534 21.712 85.1574 21.712C85.0614 21.664 84.9654 21.664 84.8694 21.712C84.6774 21.904 84.5334 22 84.4374 22C84.3894 22 84.3654 22 84.3654 22C84.3654 21.952 84.3414 21.928 84.2934 21.928C84.2454 21.928 84.1494 22 84.0054 22.144L83.5014 22.216H83.4294C83.3334 22.216 83.2854 22.264 83.2854 22.36C83.0934 22.36 82.9014 22.384 82.7094 22.432C82.5174 22.432 82.3254 22.456 82.1334 22.504L82.0614 22.576C82.0134 22.576 81.9654 22.6 81.9174 22.648C81.8694 22.648 81.7974 22.648 81.7014 22.648C81.6054 22.696 81.3414 22.72 80.9094 22.72C81.1974 23.104 81.3894 23.464 81.4854 23.8C81.5814 24.04 81.6534 24.424 81.7014 24.952C81.7974 25.432 81.8214 25.792 81.7734 26.032C81.7734 26.176 81.7254 26.224 81.6294 26.176C81.5334 26.08 81.4854 26.08 81.4854 26.176C81.4854 26.32 81.5334 26.416 81.6294 26.464C81.7734 26.464 81.8454 26.584 81.8454 26.824C81.8454 26.968 81.8214 27.16 81.7734 27.4C81.7254 27.592 81.6774 27.808 81.6294 28.048C81.5814 28.336 81.5094 28.648 81.4134 28.984C81.3654 29.272 81.2454 29.56 81.0534 29.848L80.8374 30.208V30.64C80.8374 31.024 80.7174 31.288 80.4774 31.432C80.2854 31.576 80.1414 31.744 80.0454 31.936C79.9494 32.224 79.8774 32.416 79.8294 32.512C79.8294 32.608 79.7334 32.8 79.5414 33.088C78.9174 34.048 78.1734 34.96 77.3094 35.824C76.4454 36.688 75.6054 37.48 74.7894 38.2C74.0694 38.824 73.0854 39.4 71.8374 39.928C70.6374 40.408 69.4614 40.648 68.3094 40.648ZM69.0294 39.352C69.1734 39.352 69.4614 39.328 69.8934 39.28C70.3254 39.184 70.7814 38.968 71.2614 38.632C71.3574 38.584 71.4534 38.608 71.5494 38.704C71.6454 38.8 71.7414 38.824 71.8374 38.776C72.0774 38.68 72.1734 38.608 72.1254 38.56C72.0774 38.512 72.1494 38.464 72.3414 38.416H72.4134C72.7014 38.416 72.8214 38.392 72.7734 38.344C72.7734 38.248 72.7974 38.128 72.8454 37.984C72.8454 37.84 72.9174 37.72 73.0614 37.624C73.2054 37.528 73.3254 37.456 73.4214 37.408C73.9494 36.976 74.5974 36.256 75.3654 35.248C76.1334 34.192 76.9014 33.136 77.6694 32.08C77.7174 31.984 77.7894 31.96 77.8854 32.008C77.9814 32.056 78.0534 32.056 78.1014 32.008C78.1494 31.96 78.1734 31.816 78.1734 31.576C78.1734 31.432 78.2454 31.216 78.3894 30.928C78.5334 30.592 78.6774 30.328 78.8214 30.136C78.8694 29.992 78.9654 29.728 79.1094 29.344C79.2534 28.912 79.3734 28.528 79.4694 28.192C79.6134 27.808 79.6374 27.616 79.5414 27.616C79.4454 27.568 79.3974 27.52 79.3974 27.472C79.3974 27.376 79.5414 27.28 79.8294 27.184C80.1174 27.088 80.0934 27.016 79.7574 26.968C79.6614 26.92 79.6854 26.824 79.8294 26.68C79.9734 26.536 79.9014 26.44 79.6134 26.392C79.3734 26.344 79.2774 26.272 79.3254 26.176C79.4214 26.08 79.4934 26.008 79.5414 25.96C79.6854 25.816 79.7574 25.672 79.7574 25.528C79.7574 25.096 79.6374 24.664 79.3974 24.232C79.2054 23.8 78.9894 23.416 78.7494 23.08C78.4614 23.272 78.3174 23.368 78.3174 23.368C78.2694 23.368 78.2454 23.368 78.2454 23.368C78.2454 23.32 78.1974 23.296 78.1014 23.296C78.0534 23.296 78.0294 23.296 78.0294 23.296C78.0294 23.248 78.0054 23.224 77.9574 23.224C77.9094 23.224 77.8614 23.248 77.8134 23.296C77.7654 23.344 77.7414 23.368 77.7414 23.368C77.6934 23.416 77.5974 23.44 77.4534 23.44C77.3574 23.44 77.2854 23.44 77.2374 23.44C77.1894 23.44 77.1414 23.416 77.0934 23.368C77.0934 23.32 77.0694 23.296 77.0214 23.296C76.9734 23.296 76.9014 23.344 76.8054 23.44C76.7574 23.536 76.6854 23.584 76.5894 23.584C76.5414 23.584 76.5174 23.56 76.5174 23.512C76.5174 23.464 76.4694 23.44 76.3734 23.44C76.3254 23.44 76.2774 23.464 76.2294 23.512C76.2294 23.56 76.2054 23.584 76.1574 23.584C76.1094 23.584 76.0134 23.512 75.8694 23.368H75.7974C75.7974 23.656 75.7254 23.8 75.5814 23.8C75.5334 23.8 75.4614 23.752 75.3654 23.656C74.8374 23.992 73.9494 24.784 72.7014 26.032C71.4534 27.232 70.3494 28.624 69.3894 30.208C69.1974 30.592 68.9574 31.048 68.6694 31.576C68.4294 32.104 68.2134 32.704 68.0214 33.376C67.9734 33.664 67.8294 33.88 67.5894 34.024C67.3974 34.168 67.2534 34.336 67.1574 34.528C67.1094 34.72 67.1334 34.84 67.2294 34.888C67.3254 34.936 67.3974 35.008 67.4454 35.104C67.4454 35.296 67.3974 35.56 67.3014 35.896C67.2534 36.232 67.2294 36.544 67.2294 36.832C67.2294 37.744 67.3974 38.392 67.7334 38.776C68.1174 39.16 68.5494 39.352 69.0294 39.352ZM86.8382 39.856C86.3582 39.856 85.8542 39.76 85.3262 39.568C84.7982 39.328 84.6062 39.064 84.7502 38.776C84.9422 38.392 85.1582 38.008 85.3982 37.624C85.6862 37.192 85.9502 36.736 86.1902 36.256L86.9822 34.744C87.0782 34.504 87.1742 34.336 87.2702 34.24C87.4142 34.096 87.5342 33.928 87.6302 33.736C87.6782 33.688 87.7022 33.568 87.7022 33.376C87.7022 33.136 87.7982 32.872 87.9902 32.584C88.2302 32.248 88.3982 31.936 88.4942 31.648C88.5422 31.6 88.5902 31.744 88.6382 32.08C88.6862 32.416 88.8062 32.392 88.9982 32.008C89.0462 31.96 89.0222 31.888 88.9262 31.792C88.8782 31.696 88.8542 31.6 88.8542 31.504C88.8542 31.408 88.8782 31.36 88.9262 31.36C89.0222 31.312 89.0702 31.264 89.0702 31.216C89.1182 31.072 89.0702 31.024 88.9262 31.072C88.8302 31.072 88.7822 31.048 88.7822 31C88.8782 30.856 88.9742 30.76 89.0702 30.712C89.2142 30.664 89.3102 30.592 89.3582 30.496C89.3582 30.4 89.3102 30.352 89.2142 30.352C89.1662 30.304 89.1662 30.256 89.2142 30.208C89.4542 29.536 89.7182 28.744 90.0062 27.832C90.2942 26.92 90.5102 26.08 90.6542 25.312C90.6542 25.312 90.6062 25.288 90.5102 25.24C90.4142 25.144 90.3662 25.048 90.3662 24.952L89.8622 24.592C89.2862 25.12 88.6622 25.576 87.9902 25.96C87.9422 26.008 87.8462 26.032 87.7022 26.032C87.5102 26.032 87.3902 25.936 87.3422 25.744C87.2942 25.552 87.3662 25.384 87.5582 25.24C87.7982 25.096 87.9902 25 88.1342 24.952C88.2782 24.856 88.4462 24.712 88.6382 24.52C88.7342 24.424 88.7822 24.328 88.7822 24.232C88.8302 24.136 88.8782 24.04 88.9262 23.944L89.2142 23.584C89.2142 23.344 89.2622 23.152 89.3582 23.008C89.4542 22.912 89.5262 22.864 89.5742 22.864C89.6222 22.864 89.6462 22.864 89.6462 22.864V22.72C89.6462 22.528 89.7182 22.408 89.8622 22.36C90.0542 22.312 90.1502 22.24 90.1502 22.144C90.2462 21.472 90.8222 20.968 91.8782 20.632C92.9342 20.296 93.8702 20.128 94.6862 20.128C95.5022 20.128 95.9102 20.248 95.9102 20.488C95.9102 20.632 95.7662 20.8 95.4782 20.992C95.3342 21.088 95.0942 21.304 94.7582 21.64C94.4222 21.976 94.1102 22.384 93.8222 22.864L93.3182 23.728L92.8142 24.376C92.4782 25.144 91.9982 26.32 91.3742 27.904C90.7502 29.488 90.1022 31.48 89.4302 33.88C89.5742 33.688 89.9102 33.28 90.4382 32.656C90.9662 32.032 91.5902 31.312 92.3102 30.496C93.0302 29.68 93.7262 28.912 94.3982 28.192C95.0702 27.424 95.6222 26.824 96.0542 26.392L96.4142 26.176C96.5102 26.08 96.6062 25.96 96.7022 25.816C96.8462 25.624 96.9662 25.48 97.0622 25.384C97.1102 25.336 97.1342 25.432 97.1342 25.672C97.1822 25.864 97.2302 25.936 97.2782 25.888C97.4702 25.744 97.5662 25.528 97.5662 25.24C97.6142 24.952 97.7342 24.76 97.9262 24.664C98.4542 24.232 99.1742 23.632 100.086 22.864C101.046 22.048 102.03 21.568 103.038 21.424C103.134 21.328 103.278 21.304 103.47 21.352C103.71 21.352 103.878 21.328 103.974 21.28C104.07 21.28 104.142 21.256 104.19 21.208C104.238 21.16 104.358 21.136 104.55 21.136C104.646 21.136 104.838 21.208 105.126 21.352C105.462 21.496 105.654 21.688 105.702 21.928C105.99 22.12 106.134 22.408 106.134 22.792C106.134 23.464 105.774 23.968 105.054 24.304C104.814 24.544 104.55 24.784 104.262 25.024C103.974 25.216 103.686 25.432 103.398 25.672C103.302 25.768 103.23 25.816 103.182 25.816C102.846 26.104 102.558 26.416 102.318 26.752C102.078 27.088 101.958 27.52 101.958 28.048C101.958 28.096 102.006 28.168 102.102 28.264C102.198 28.312 102.222 28.36 102.174 28.408C102.318 28.552 102.534 28.648 102.822 28.696C103.11 28.696 103.398 28.696 103.686 28.696C104.166 28.696 104.886 28.504 105.846 28.12H105.99C106.038 28.12 106.062 28.144 106.062 28.192C106.062 28.288 105.966 28.456 105.774 28.696C105.582 28.888 105.366 29.032 105.126 29.128C104.598 29.32 104.046 29.44 103.47 29.488C102.894 29.488 102.486 29.488 102.246 29.488C101.382 29.488 100.83 29.32 100.59 28.984C100.398 28.648 100.206 28.24 100.014 27.76V27.4L100.374 27.04C100.326 26.896 100.254 26.752 100.158 26.608C100.062 26.464 100.014 26.296 100.014 26.104C100.014 25.624 100.206 25.072 100.59 24.448C100.062 24.592 99.3902 25 98.5742 25.672C97.8062 26.296 97.0142 27.04 96.1982 27.904C95.3822 28.72 94.6382 29.536 93.9662 30.352C93.2942 31.12 92.7662 31.744 92.3822 32.224C92.2382 32.416 92.0702 32.536 91.8782 32.584C91.7342 32.584 91.6142 32.656 91.5182 32.8C91.4702 32.848 91.5182 32.872 91.6622 32.872C91.8542 32.872 91.9262 32.896 91.8782 32.944C91.2542 33.904 90.5822 34.96 89.8622 36.112C89.1902 37.264 88.5182 38.392 87.8462 39.496C87.7022 39.736 87.3662 39.856 86.8382 39.856ZM104.759 42.592C104.663 42.304 104.615 42.016 104.615 41.728C104.615 41.584 104.639 41.44 104.687 41.296C104.687 41.2 104.711 41.08 104.759 40.936C104.807 40.792 104.927 40.408 105.119 39.784C105.359 39.16 105.575 38.512 105.767 37.84C106.007 37.168 106.175 36.784 106.271 36.688C106.271 36.688 106.415 36.328 106.703 35.608C107.039 34.84 107.399 34.048 107.783 33.232C108.167 32.368 108.455 31.816 108.647 31.576C108.887 31.048 109.247 30.4 109.727 29.632C110.255 28.816 110.759 27.856 111.239 26.752V26.392C111.239 26.248 111.239 26.128 111.239 26.032C111.287 25.888 111.335 25.744 111.383 25.6C111.575 25.216 111.743 24.952 111.887 24.808C112.079 24.664 112.271 24.4 112.463 24.016C112.463 23.92 112.463 23.824 112.463 23.728C112.511 23.632 112.559 23.536 112.607 23.44C112.511 23.536 112.487 23.464 112.535 23.224C112.439 23.224 112.535 22.984 112.823 22.504C113.015 22.072 113.159 21.832 113.255 21.784H113.327C113.519 21.496 113.687 21.256 113.831 21.064C113.975 20.824 114.023 20.68 113.975 20.632V20.488C113.975 20.152 114.071 19.84 114.263 19.552C114.503 19.264 114.719 18.952 114.911 18.616C115.055 18.424 115.175 18.328 115.271 18.328C115.367 18.328 115.415 18.352 115.415 18.4C115.463 18.4 115.511 18.4 115.559 18.4C115.703 18.4 115.775 18.28 115.775 18.04C115.775 17.944 115.751 17.824 115.703 17.68C115.703 17.536 115.679 17.368 115.631 17.176C115.679 16.936 115.871 16.744 116.207 16.6L116.423 16.528C116.663 15.52 116.951 14.848 117.287 14.512C117.383 14.416 117.479 14.32 117.575 14.224C117.671 14.128 117.767 14.032 117.863 13.936C118.439 13.312 118.871 12.64 119.159 11.92C119.255 11.728 119.375 11.584 119.519 11.488C119.711 11.344 119.879 11.176 120.023 10.984C120.119 10.84 120.143 10.696 120.095 10.552C120.095 10.36 120.119 10.192 120.167 10.048C120.407 9.664 120.575 9.448 120.671 9.4C120.767 9.352 120.863 9.304 120.959 9.256C121.103 9.16 121.343 8.944 121.679 8.608C121.823 8.368 121.967 8.128 122.111 7.888C122.303 7.648 122.495 7.408 122.687 7.168C122.975 6.832 123.287 6.592 123.623 6.448C123.959 6.304 124.295 6.088 124.631 5.8C124.727 5.704 124.775 5.56 124.775 5.368C124.775 5.128 124.823 4.96 124.919 4.864C126.599 3.52 128.399 2.392 130.319 1.48C132.287 0.567998 133.799 0.111999 134.855 0.111999C135.239 0.111999 135.599 0.135998 135.935 0.183998C136.319 0.231997 136.679 0.303998 137.015 0.399999H137.159C137.399 0.399999 137.639 0.447999 137.879 0.543997C138.119 0.639999 138.335 0.735999 138.527 0.831998C138.719 0.831998 138.959 0.879997 139.247 0.975996C139.487 1.072 139.631 1.216 139.679 1.408C139.727 1.6 139.679 1.744 139.535 1.84C139.487 1.888 139.415 1.888 139.319 1.84C139.223 1.792 139.127 1.768 139.031 1.768C138.935 1.768 138.839 1.72 138.743 1.624C138.647 1.528 138.551 1.456 138.455 1.408C138.263 1.408 138.047 1.432 137.807 1.48C137.615 1.528 137.399 1.552 137.159 1.552H136.943C136.607 1.552 136.367 1.504 136.223 1.408C136.127 1.264 135.887 1.24 135.503 1.336C135.455 1.336 135.311 1.36 135.071 1.408C134.831 1.456 134.663 1.48 134.567 1.48C132.839 1.912 131.327 2.632 130.031 3.64C128.735 4.6 127.583 5.68 126.575 6.88C125.615 8.08 124.679 9.232 123.767 10.336C123.335 11.2 122.903 11.896 122.471 12.424C122.423 12.472 122.375 12.448 122.327 12.352C122.279 12.256 122.231 12.256 122.183 12.352C122.039 12.496 121.919 12.736 121.823 13.072C121.775 13.36 121.679 13.6 121.535 13.792C121.487 13.84 121.439 13.816 121.391 13.72C121.343 13.624 121.271 13.624 121.175 13.72C121.127 13.768 121.055 13.96 120.959 14.296C120.911 14.584 120.839 14.776 120.743 14.872C120.167 15.64 119.543 16.384 118.871 17.104C118.199 17.824 117.527 18.664 116.855 19.624C115.895 21.112 114.983 22.576 114.119 24.016C113.255 25.456 112.343 27.04 111.383 28.768C111.047 29.344 110.783 29.872 110.591 30.352C110.447 30.784 110.279 31.192 110.087 31.576C109.847 32.152 109.727 32.56 109.727 32.8C109.727 33.136 109.943 33.208 110.375 33.016C110.567 32.92 110.831 32.68 111.167 32.296C111.551 31.864 111.815 31.624 111.959 31.576C112.007 31.528 112.079 31.504 112.175 31.504C112.367 31.504 112.463 31.576 112.463 31.72C112.463 31.912 112.343 32.08 112.103 32.224C111.911 32.32 111.791 32.44 111.743 32.584C111.695 32.728 111.575 32.92 111.383 33.16C111.239 33.256 111.143 33.4 111.095 33.592C111.047 33.784 110.999 33.904 110.951 33.952C110.903 34.048 110.879 34.192 110.879 34.384C110.879 34.528 110.759 34.696 110.519 34.888C110.471 34.936 110.423 35.032 110.375 35.176C110.375 35.32 110.351 35.44 110.303 35.536C110.255 35.68 110.159 35.8 110.015 35.896C109.919 35.944 109.871 35.992 109.871 36.04C109.823 36.232 109.727 36.352 109.583 36.4C109.487 36.4 109.391 36.448 109.295 36.544C109.247 36.592 109.247 36.664 109.295 36.76C109.343 36.856 109.319 36.952 109.223 37.048L108.503 38.56C108.455 38.656 108.383 38.752 108.287 38.848C108.239 38.944 108.167 39.016 108.071 39.064C108.023 39.064 107.927 39.04 107.783 38.992C107.687 38.944 107.639 38.968 107.639 39.064C107.591 39.112 107.591 39.256 107.639 39.496C107.735 39.688 107.711 39.832 107.567 39.928C107.423 40.024 107.279 40.216 107.135 40.504C107.039 40.84 106.943 41.056 106.847 41.152C106.655 41.344 106.487 41.464 106.343 41.512C106.199 41.608 106.055 41.752 105.911 41.944C105.863 41.992 105.695 42.184 105.407 42.52C105.119 42.904 104.903 42.928 104.759 42.592ZM125.855 41.152C125.375 41.152 125.015 41.056 124.775 40.864C124.679 40.816 124.559 40.744 124.415 40.648C124.319 40.552 124.223 40.504 124.127 40.504H123.983C123.935 40.504 123.863 40.432 123.767 40.288C123.671 40.192 123.575 40.12 123.479 40.072C123.431 40.072 123.263 39.976 122.975 39.784C122.687 39.544 122.495 39.4 122.399 39.352C122.351 39.304 122.303 39.256 122.255 39.208C122.255 39.112 122.231 39.064 122.183 39.064H122.039C122.039 39.064 122.039 39.016 122.039 38.92C121.895 38.728 121.751 38.56 121.607 38.416C121.463 38.272 121.367 38.104 121.319 37.912L121.175 37.984C121.127 37.888 121.055 37.792 120.959 37.696C120.911 37.552 120.839 37.456 120.743 37.408C120.743 37.312 120.599 37.096 120.311 36.76C120.071 36.424 119.903 36.232 119.807 36.184C119.807 36.04 119.759 35.92 119.663 35.824C119.567 35.68 119.471 35.56 119.375 35.464C119.375 35.32 119.375 35.248 119.375 35.248C119.279 35.008 119.135 34.816 118.943 34.672C118.799 34.48 118.679 34.288 118.583 34.096C118.487 33.904 118.415 33.736 118.367 33.592C118.367 33.448 118.367 33.352 118.367 33.304C118.271 33.16 118.055 32.92 117.719 32.584L117.647 32.512C117.647 32.416 117.623 32.296 117.575 32.152C117.527 32.008 117.479 31.888 117.431 31.792C117.287 31.696 117.167 31.528 117.071 31.288C117.023 31.048 116.951 30.856 116.855 30.712V30.424L116.279 29.488C116.231 29.392 116.207 29.296 116.207 29.2C116.207 29.104 116.159 29.008 116.063 28.912C115.823 28.864 115.799 28.672 115.991 28.336C115.847 28 115.703 27.832 115.559 27.832C115.463 27.832 115.367 27.904 115.271 28.048C115.175 28.144 115.103 28.216 115.055 28.264C115.007 28.264 114.935 28.384 114.839 28.624C114.743 28.816 114.671 28.936 114.623 28.984C114.575 29.272 114.431 29.488 114.191 29.632C113.999 29.776 113.855 29.968 113.759 30.208C113.423 30.928 113.087 31.24 112.751 31.144C112.703 31.144 112.679 31.096 112.679 31C112.679 30.952 112.679 30.88 112.679 30.784C112.679 30.64 112.727 30.472 112.823 30.28L113.111 29.704C113.207 29.608 113.303 29.512 113.399 29.416C113.543 29.272 113.663 29.152 113.759 29.056C114.191 28.528 114.527 28.072 114.767 27.688C115.007 27.256 115.511 26.8 116.279 26.32C116.519 26.176 116.687 26.032 116.783 25.888C117.071 25.84 117.287 25.624 117.431 25.24L117.575 25.312C117.623 25.216 117.671 25.168 117.719 25.168C117.815 25.168 117.887 25.144 117.935 25.096C118.607 24.568 119.207 24.136 119.735 23.8C120.311 23.416 120.935 22.984 121.607 22.504C121.607 22.504 121.751 22.36 122.039 22.072C122.327 21.784 122.519 21.616 122.615 21.568C122.663 21.52 122.783 21.496 122.975 21.496C123.071 21.448 123.215 21.352 123.407 21.208C123.599 21.064 123.719 20.968 123.767 20.92C123.863 20.92 123.959 20.896 124.055 20.848C124.151 20.8 124.223 20.776 124.271 20.776C124.607 20.344 125.039 20.08 125.567 19.984C125.567 19.936 125.567 19.912 125.567 19.912C125.615 19.864 125.639 19.816 125.639 19.768H125.783C125.831 19.768 125.879 19.744 125.927 19.696C125.975 19.648 126.023 19.624 126.071 19.624C126.167 19.576 126.287 19.528 126.431 19.48C126.623 19.384 126.719 19.288 126.719 19.192C126.719 19.144 126.767 19.168 126.863 19.264C126.911 19.264 127.055 19.24 127.295 19.192C127.583 19.144 127.751 19.096 127.799 19.048L127.871 19.12L128.303 18.832L129.023 18.688C129.167 18.64 129.359 18.592 129.599 18.544C129.887 18.496 130.103 18.496 130.247 18.544C130.247 18.544 130.271 18.568 130.319 18.616C130.607 18.616 130.679 18.832 130.535 19.264C130.391 19.696 130.175 20.104 129.887 20.488C129.599 20.872 129.383 21.04 129.239 20.992C129.239 20.992 129.215 20.968 129.167 20.92C129.119 20.92 128.975 20.968 128.735 21.064C128.495 21.112 128.327 21.136 128.231 21.136C128.183 21.088 128.135 21.064 128.087 21.064C128.039 21.112 127.967 21.208 127.871 21.352C127.823 21.448 127.727 21.544 127.583 21.64C127.535 21.688 127.175 21.76 126.503 21.856C125.831 21.952 125.447 21.976 125.351 21.928H125.279C125.135 21.928 124.703 22.096 123.983 22.432C123.311 22.72 122.879 22.912 122.687 23.008C122.591 23.056 122.495 23.08 122.399 23.08C122.303 23.032 122.207 23.056 122.111 23.152C121.967 23.2 121.823 23.272 121.679 23.368C121.583 23.464 121.463 23.56 121.319 23.656C120.983 23.944 120.383 24.304 119.519 24.736C118.703 25.168 118.151 25.648 117.863 26.176C117.719 26.368 117.695 26.536 117.791 26.68C117.935 26.824 117.983 26.92 117.935 26.968L120.959 32.368C121.055 32.464 121.151 32.608 121.247 32.8C121.391 32.992 121.487 33.136 121.535 33.232C121.631 33.28 121.703 33.352 121.751 33.448C121.799 33.544 121.871 33.64 121.967 33.736C122.063 34.024 122.255 34.288 122.543 34.528C122.831 34.768 122.951 35.008 122.903 35.248L123.263 35.536C123.311 35.536 123.335 35.584 123.335 35.68C123.383 35.728 123.455 35.752 123.551 35.752C123.551 35.8 123.623 35.944 123.767 36.184C123.959 36.424 124.079 36.592 124.127 36.688L124.199 36.616C124.343 36.856 124.511 37.096 124.703 37.336C124.943 37.528 125.159 37.72 125.351 37.912L125.639 38.056C125.735 38.104 125.831 38.2 125.927 38.344C126.023 38.44 126.095 38.488 126.143 38.488H126.215C126.407 38.488 126.527 38.536 126.575 38.632C126.671 38.68 126.791 38.704 126.935 38.704C126.983 38.752 127.007 38.8 127.007 38.848C127.055 38.848 127.103 38.872 127.151 38.92C127.199 38.92 127.223 38.92 127.223 38.92C127.271 38.872 127.319 38.848 127.367 38.848C127.463 38.848 127.487 38.872 127.439 38.92C127.439 38.92 127.463 38.92 127.511 38.92H127.655C127.943 38.92 128.303 38.872 128.735 38.776C129.215 38.632 129.479 38.464 129.527 38.272C129.623 38.272 129.695 38.2 129.743 38.056C129.935 37.96 130.031 37.888 130.031 37.84C130.031 37.744 130.055 37.648 130.103 37.552L130.319 37.408C130.415 37.168 130.463 36.808 130.463 36.328C130.511 35.848 130.559 35.512 130.607 35.32C130.703 34.936 130.727 34.648 130.679 34.456C130.631 34.264 130.631 34 130.679 33.664C130.679 33.568 130.655 33.496 130.607 33.448C130.559 33.352 130.535 33.28 130.535 33.232V33.088C130.535 32.896 130.487 32.728 130.391 32.584C130.343 32.392 130.271 32.2 130.175 32.008L129.959 31.288C129.959 31.24 129.935 31.216 129.887 31.216C129.887 31.168 129.887 31.144 129.887 31.144C129.887 30.904 129.983 30.784 130.175 30.784C130.319 30.784 130.511 30.976 130.751 31.36L131.255 32.296C131.447 32.344 131.519 32.392 131.471 32.44C131.423 32.488 131.423 32.608 131.471 32.8L131.615 33.088V33.16C131.615 33.304 131.687 33.496 131.831 33.736C131.975 33.928 132.071 34.072 132.119 34.168C132.167 34.36 132.215 34.552 132.263 34.744C132.359 34.936 132.359 35.152 132.263 35.392L132.191 36.04C132.143 36.088 132.095 36.16 132.047 36.256C131.999 36.352 131.903 36.424 131.759 36.472C131.663 36.52 131.543 36.496 131.399 36.4C131.255 36.304 131.183 36.304 131.183 36.4C131.087 36.496 131.087 36.592 131.183 36.688C131.087 36.784 131.015 36.904 130.967 37.048C130.967 37.192 130.943 37.336 130.895 37.48C130.895 37.528 130.871 37.576 130.823 37.624C130.775 37.624 130.751 37.648 130.751 37.696C130.703 37.744 130.679 37.816 130.679 37.912C130.679 37.96 130.655 38.008 130.607 38.056C130.559 38.152 130.439 38.392 130.247 38.776C130.055 39.16 129.863 39.544 129.671 39.928C129.479 40.264 129.359 40.456 129.311 40.504L128.591 40.792C128.543 40.792 128.519 40.744 128.519 40.648C128.423 40.696 128.327 40.744 128.231 40.792C128.135 40.888 128.039 40.96 127.943 41.008H127.511C127.463 41.008 127.391 41.032 127.295 41.08C127.247 41.128 127.175 41.128 127.079 41.08H127.007L126.863 41.152C126.767 41.056 126.719 41.008 126.719 41.008C126.671 40.96 126.551 40.96 126.359 41.008C126.215 41.104 126.047 41.152 125.855 41.152Z" fill="#FF5F00"/>
</svg>
